<svg
  class="icon"
  viewBox="0 0 24 24"
  xmlns="http://www.w3.org/2000/svg"
>
  <path
    fill-rule="evenodd"
    clip-rule="evenodd"
    d="
      M12 2
      C6.477 2 2 6.477 2 12
      C2 17.523 6.477 22 12 22
      C17.523 22 22 17.523 22 12
      C22 6.477 17.523 2 12 2

      M12 4
      C16.418 4 20 7.582 20 12
      C20 16.418 16.418 20 12 20
      C7.582 20 4 16.418 4 12
      C4 7.582 7.582 4 12 4

      M11 11
      C11 10.448 11.448 10 12 10
      C12.552 10 13 10.448 13 11
      L13 16
      C13 16.552 12.552 17 12 17
      C11.448 17 11 16.552 11 16
      Z

      M12 7
      C11.309 7 10.75 7.559 10.75 8.25
      C10.75 8.941 11.309 9.5 12 9.5
      C12.691 9.5 13.25 8.941 13.25 8.25
      C13.25 7.559 12.691 7 12 7
    "
  />
</svg>